<svg version="1.1" id="Layer_1" xmlns="http://www.w3.org/2000/svg" xmlns:xlink="http://www.w3.org/1999/xlink" x="0px" y="0px"
	 width="100%" viewBox="0 0 592 592" enable-background="new 0 0 592 592" xml:space="preserve">
<path fill="#000000" opacity="1.000000" stroke="none" 
	d="
M144.468658,593.000000 
	C144.774628,580.224060 147.133759,567.650696 148.870117,554.998169 
	C153.411118,521.908936 162.372604,489.956360 173.739807,458.627930 
	C176.807327,450.173706 179.705841,441.573303 184.417145,433.912445 
	C187.554016,428.811646 183.314865,422.982941 178.014999,422.188019 
	C169.254105,420.874054 160.407639,421.789825 151.638351,420.443390 
	C140.069611,418.667145 135.362137,415.509460 133.559082,404.038086 
	C132.015594,394.218140 128.665909,387.964600 118.008682,385.351898 
	C109.404350,383.242493 105.407097,375.307007 104.761597,366.533661 
	C104.208977,359.022675 102.248398,352.324554 97.719345,346.135132 
	C88.732712,333.853912 89.696709,322.108429 100.043839,310.979034 
	C105.617256,304.984192 105.791702,304.890930 102.091911,297.969910 
	C96.697319,287.878540 94.588554,277.220673 94.576782,265.796021 
	C94.552704,242.424515 95.805557,219.312592 102.550888,196.698288 
	C108.120331,178.026260 117.683533,161.649506 129.668564,146.551041 
	C150.266418,120.602287 175.333847,99.985161 204.865189,85.010956 
	C229.178375,72.682671 254.988113,66.207672 282.407593,67.904228 
	C289.438782,68.339279 296.665131,68.930168 302.858490,73.396126 
	C305.076691,74.995636 308.055573,75.678162 310.943970,75.655067 
	C327.437469,75.523224 343.885162,76.602036 360.316711,77.751717 
	C379.705750,79.108330 399.206635,79.459320 418.317902,83.665436 
	C427.371399,85.657990 434.818054,90.097237 441.499084,96.569870 
	C458.507263,113.047523 472.190460,131.981796 484.635712,152.009583 
	C497.202576,172.233170 509.641296,192.604584 523.490845,211.940948 
	C534.210571,226.907501 533.935852,242.531052 530.813660,259.039185 
	C523.788330,296.184723 505.400085,327.714111 482.056915,356.716095 
	C465.980377,376.689941 447.647827,394.258850 425.987885,408.164032 
	C423.511536,409.753784 422.717804,412.076385 421.977753,414.739197 
	C419.862732,422.349121 417.390045,429.793488 409.377686,433.541931 
	C406.763184,434.765015 404.050903,435.618225 401.234680,435.760956 
	C395.169830,436.068329 390.505737,438.916107 386.425140,443.130768 
	C381.794891,447.913147 377.356140,452.893127 371.791626,456.691223 
	C365.052765,461.290894 358.301666,461.956757 351.374176,457.190399 
	C351.099915,457.001648 350.815338,456.826996 350.529480,456.655975 
	C339.141235,449.843506 343.120819,449.792358 332.420868,457.597565 
	C328.634979,460.359222 327.852509,463.601105 328.797516,468.006958 
	C332.976776,487.492401 340.771973,505.705414 348.194214,524.054749 
	C357.557861,547.203735 368.768921,569.519104 379.005798,592.635742 
	C366.979095,593.000000 354.958221,593.000000 342.281250,592.702820 
	C326.496124,561.090576 312.583160,529.206299 302.048645,496.082825 
	C298.133209,483.771545 290.230957,475.171692 282.249634,464.888275 
	C282.249634,468.231232 282.186737,470.663696 282.259216,473.092102 
	C283.118011,501.857697 284.326538,530.610107 286.443787,559.310913 
	C287.274109,570.566833 288.794098,581.771790 290.000000,593.000000 
	C278.645782,593.000000 267.291534,593.000000 255.376190,592.581177 
	C253.143280,577.476929 251.190140,562.816956 249.860962,548.100647 
	C247.435257,521.243958 246.292252,494.319244 246.643539,467.341736 
	C246.664200,465.755280 247.147491,464.038177 245.964020,462.372131 
	C245.360519,462.504120 244.679749,462.522003 244.123154,462.794067 
	C232.350128,468.547852 219.992126,472.221405 206.894516,473.188782 
	C204.420380,473.371521 204.007248,475.250519 203.477798,476.903778 
	C194.855774,503.827209 187.698700,531.116516 183.256409,559.068604 
	C181.460022,570.372009 179.749557,581.689148 178.000000,593.000000 
	C166.979111,593.000000 155.958206,593.000000 144.468658,593.000000 
M256.595001,252.679749 
	C263.813843,255.326187 270.993042,254.885239 278.076080,252.228775 
	C284.581451,249.788956 290.737610,250.393677 296.852936,253.604202 
	C302.968903,256.815033 309.628357,258.400940 316.103363,255.473984 
	C332.137695,248.225800 348.495209,252.889175 364.746338,253.503281 
	C366.532288,253.570770 368.462128,254.002197 370.031372,254.825180 
	C374.227753,257.026001 377.747223,256.615143 381.438019,253.515656 
	C386.494476,249.269318 392.185974,248.904144 398.264221,251.636459 
	C405.435577,254.860153 410.772614,260.398590 416.329865,265.607788 
	C421.035767,270.018982 426.162292,272.570801 432.744965,272.821167 
	C443.563690,273.232605 449.380249,279.760773 449.346588,290.534790 
	C449.327911,296.508362 448.487244,302.555969 450.298157,308.411621 
	C452.862976,316.705048 451.808197,324.443726 447.419830,331.911865 
	C446.003021,334.322968 445.089874,337.076263 444.242554,339.766296 
	C442.424011,345.539642 441.068359,351.405365 441.539612,358.478302 
	C450.223938,350.550415 456.850250,342.232178 463.236176,333.746277 
	C481.601440,309.341522 496.648285,283.252716 503.055298,252.955917 
	C504.464966,246.289795 505.739044,239.526901 501.794342,233.115067 
	C500.051483,230.282181 498.555328,227.298721 496.865143,224.431976 
	C486.541779,206.922638 475.195496,190.062073 464.131958,173.024338 
	C452.251953,154.729233 440.654694,136.220703 425.354309,120.426933 
	C419.984650,114.884132 414.092072,110.946823 406.063416,110.142830 
	C382.716003,107.804825 359.303436,106.562645 335.894745,105.132919 
	C321.969391,104.282402 308.011932,103.806229 294.158356,101.619499 
	C287.704834,100.600830 281.822815,97.751747 275.269806,97.175575 
	C255.996658,95.480965 238.339706,100.966164 221.329514,109.062202 
	C195.226807,121.485832 172.997818,139.046692 154.677277,161.363541 
	C145.824768,172.147079 137.136688,183.176468 132.698257,196.773026 
	C126.928841,214.446930 124.681900,232.731735 123.410629,251.161194 
	C123.038902,256.550079 123.353462,261.986328 123.353462,267.400848 
	C126.277313,264.525818 128.967361,261.661957 132.548691,261.055878 
	C143.538788,259.195892 152.867737,253.733215 162.029892,248.009079 
	C169.167587,243.549774 176.620300,242.660934 184.546494,244.384689 
	C203.959641,248.606522 223.526901,251.203903 243.448517,250.743958 
	C247.603302,250.648041 251.711823,251.510147 256.595001,252.679749 
M207.636856,402.050690 
	C208.521271,404.375488 209.630356,406.642059 210.250641,409.035309 
	C212.751328,418.683655 214.905426,428.420654 216.292404,438.291626 
	C216.876022,442.445221 218.733032,443.359344 222.403915,441.971039 
	C226.143951,440.556610 229.802460,439.034729 233.303802,437.045837 
	C241.262344,432.525116 248.699615,427.112976 257.079437,423.311066 
	C274.484833,415.414337 292.310181,421.624847 301.018188,438.655792 
	C301.974365,440.525879 302.437836,442.754242 304.818146,444.249786 
	C308.376068,441.088562 312.138397,438.066711 315.529449,434.673859 
	C326.662476,423.534882 339.929718,421.702850 354.247223,426.215271 
	C358.673828,427.610382 361.558746,426.792542 364.502380,423.909882 
	C366.168854,422.277924 367.823700,420.634125 369.483887,418.995728 
	C375.147064,413.407043 381.088562,408.436829 389.754974,408.635040 
	C393.078278,408.711029 393.825562,406.517395 393.681824,403.585297 
	C393.511536,400.111481 392.541992,396.727051 393.098755,393.155884 
	C394.236786,385.856689 398.573090,380.458282 403.109100,375.085449 
	C406.542328,371.018829 411.527557,367.250977 412.706238,362.566193 
	C413.981598,357.497284 409.128418,352.634949 406.457947,347.933228 
	C404.979156,345.329651 405.402924,343.376068 407.118744,341.119965 
	C410.943787,336.090515 414.645599,330.961334 418.220581,325.751343 
	C419.290619,324.191895 421.325317,322.575836 420.354614,320.435486 
	C417.475006,314.086182 415.425629,306.999847 410.155243,302.280975 
	C405.310760,297.943451 400.752258,293.346405 396.116180,288.821167 
	C392.886566,285.668823 389.849091,284.781097 385.404938,286.760498 
	C378.809418,289.697968 371.919220,290.571899 365.586243,285.602264 
	C364.292175,284.586823 362.970428,284.205963 361.511627,285.348419 
	C353.635040,291.516724 345.581604,289.711273 338.401398,284.670929 
	C333.050690,280.914886 328.193695,280.619293 322.534943,282.874817 
	C312.894501,286.717407 303.271484,287.506836 293.456055,283.101166 
	C288.837524,281.028107 283.886627,280.791656 278.818878,282.223419 
	C274.815186,283.354553 270.701172,283.227600 266.461487,282.669006 
	C257.247955,281.455078 248.156174,279.262177 238.777588,279.243225 
	C227.795776,279.221039 216.796646,279.364624 205.849762,278.276215 
	C197.434402,277.439484 188.906601,277.056122 181.152451,273.000793 
	C177.576752,271.130737 174.159561,272.008087 171.523453,274.699005 
	C166.176819,280.156891 161.371185,286.147278 154.822357,290.351807 
	C153.855560,290.972504 153.306412,292.559082 152.977798,293.807678 
	C150.739914,302.310913 144.731903,308.046570 138.599930,313.714203 
	C133.799728,318.150940 128.296753,321.862793 123.803886,327.484436 
	C131.688934,329.436829 138.200958,332.061859 141.305481,339.950195 
	C144.869522,349.006195 135.668625,353.021606 134.090073,359.999268 
	C135.583084,361.319733 137.435989,361.366333 139.200592,361.757385 
	C144.712036,362.978851 150.435944,363.231628 155.766129,365.258453 
	C163.579773,368.229614 166.556137,373.784943 164.730698,381.787872 
	C164.250473,383.893219 163.722076,385.990814 163.338074,388.114105 
	C162.654480,391.894012 164.134048,393.739441 168.139999,393.695038 
	C174.803513,393.621155 181.495941,393.414581 188.127151,393.914337 
	C195.165176,394.444794 202.663727,394.417145 207.636856,402.050690 
z"/>
<path fill="#000000" opacity="1.000000" stroke="none" 
	d="
M330.495758,157.372162 
	C340.068756,156.604019 349.181488,155.612137 358.317261,155.305603 
	C378.076324,154.642578 397.881989,152.081543 417.591064,155.731918 
	C426.340576,157.352448 429.528564,161.071976 429.452148,168.496750 
	C429.393921,174.153030 427.153656,177.157364 421.433899,179.104340 
	C415.382324,181.164261 409.020081,181.688660 402.747772,182.096054 
	C387.469116,183.088425 372.162537,183.694061 356.860291,184.271835 
	C332.723114,185.183182 308.789307,187.727325 284.950439,191.711655 
	C265.742432,194.922028 246.329681,197.159119 226.843567,194.234756 
	C215.068359,192.467606 210.087570,180.845642 217.151321,172.581680 
	C220.093338,169.139771 224.254944,168.159500 228.362305,167.805176 
	C242.283493,166.604233 256.222717,165.539230 270.174713,164.788284 
	C284.989227,163.990906 299.526672,161.218018 314.178741,159.251617 
	C319.453033,158.543777 324.756042,158.050400 330.495758,157.372162 
z"/>
<path fill="#000000" opacity="1.000000" stroke="none" 
	d="
M427.598267,216.244095 
	C426.961975,217.274765 426.615356,218.069061 426.046692,218.643524 
	C422.546692,222.179169 419.124786,226.630737 413.445648,225.059555 
	C407.547363,223.427734 403.795898,218.852524 401.277985,213.349304 
	C400.534912,211.725220 400.681458,210.079559 401.531464,208.552155 
	C402.416443,206.961914 403.196503,205.223053 404.424500,203.931396 
	C407.726013,200.458588 411.137726,196.092239 416.480316,197.356155 
	C422.396332,198.755737 426.349518,203.264786 428.860840,208.802109 
	C430.004150,211.322922 429.028015,213.669952 427.598267,216.244095 
z"/>
<path fill="#000000" opacity="1.000000" stroke="none" 
	d="
M259.163025,225.515808 
	C259.881897,217.803024 264.211121,213.382782 271.854370,212.070786 
	C276.783051,211.224762 284.547607,215.432922 286.773438,220.291855 
	C287.853058,222.648712 287.897095,225.129288 286.788483,227.542542 
	C286.582123,227.991791 286.278168,228.400925 285.988007,228.806213 
	C282.641876,233.479782 278.895142,238.693298 272.727417,238.007629 
	C266.051941,237.265518 261.997192,231.912872 259.163025,225.515808 
z"/>
<path fill="#000000" opacity="1.000000" stroke="none" 
	d="
M205.237915,304.681091 
	C210.186111,297.134277 216.633636,293.869781 225.489120,293.484650 
	C243.811523,292.687775 262.121307,293.096497 280.431183,293.124695 
	C287.197357,293.135101 294.082825,293.028992 300.774078,294.627838 
	C304.253876,295.459320 307.221771,297.073212 309.472260,300.036743 
	C315.708374,308.248718 312.776337,317.093811 302.720612,319.560059 
	C293.116028,321.915649 283.219910,321.864288 273.439209,322.076416 
	C255.289459,322.470093 237.125732,322.305359 218.968521,322.222626 
	C213.156204,322.196106 207.598373,321.282623 204.865067,314.963318 
	C203.400024,311.576141 202.892502,308.292755 205.237915,304.681091 
z"/>
</svg>