<svg xmlns="http://www.w3.org/2000/svg"
    xmlns:xlink="http://www.w3.org/1999/xlink" version="1.1" width="600" height="600" viewBox="0,0,600,600">
    <g>
        <g  fill="none" fill-rule="none" stroke="none" stroke-width="none" stroke-linecap="butt" stroke-linejoin="miter" stroke-miterlimit="10" stroke-dasharray="" stroke-dashoffset="0" font-family="none" font-weight="none" font-size="none" text-anchor="none" style="mix-blend-mode: normal">
            <g transform="translate(300,300) scale(1.41851,1.41851)" >
                <g >
                    <g transform="translate(-59.16631,73.77427)"  fill-rule="evenodd" stroke-width="1">
                        <g >
                            <path d="M-46.14784,-57.76882c1.624,2.304 1.86742,4.56452 1.17275,11.12019c-2.15833,20.368 -2.71185,29.70786 -2.42985,40.97186c0.201,8.01733 0.70666,12.88816 1.79666,18.16583c2.35267,11.38933 7.82478,19.85558 16.52978,25.64758c5.111,3.401 9.31157,4.65418 18.99757,5.39985c6.15267,0.47333 16.60248,0.2116 20.53415,-0.5084c8.38967,-1.53633 18.96681,-5.73804 23.65048,-9.31437c5.568,-4.25133 10.07277,-14.12517 11.85244,-26.15584c0.99,-6.693 1.26306,-10.39718 1.57239,-22.49318c0.29,-11.348 0.5327,-14.41016 1.49403,-17.70049c0.191,-0.65367 -0.70881,-1.46261 -4.56948,-2.13594c-2.25933,-0.394 -6.66038,-1.08062 -9.79671,-1.52929c-8.219,-1.17633 -18.11504,-3.67164 -36.58504,-9.22631c-8.55833,-2.57367 -29.13643,-9.37313 -37.3001,-12.32413c-3.482,-1.25867 -6.58648,-2.32287 -6.72148,-2.32287c-0.13533,0 -0.75426,1.61584 -0.19759,2.40551z"  fill="#80bfd5"/>
                            <path d="M-59.1055,-61.03673c-2.59083,1.89686 -3.87023,6.89879 -5.68167,22.22488c-4.28483,36.26801 -2.15309,55.13513 8.48602,75.11439c9.72805,18.26568 31.73406,28.27666 59.12102,26.89228c11.99859,-0.605 16.62329,-1.86482 29.79451,-8.11234c10.90603,-5.17276 17.11796,-9.3953 20.67145,-14.05203c7.30093,-9.57325 11.92919,-27.73928 13.11606,-51.47488c0.90038,-18.00767 0.63524,-20.86896 -2.23495,-24.0381c-4.07308,-4.50192 -10.27611,-4.6247 -14.20506,-0.28115c-2.33281,2.57659 -3.00365,7.01267 -3.00365,19.86715c0,28.02933 -5.4023,44.64194 -16.36171,50.30937c-12.59113,6.51087 -22.46332,8.56253 -37.41751,7.77781c-12.21212,-0.64059 -16.17309,-1.63349 -22.05761,-5.52685c-17.61798,-11.65872 -21.50955,-32.7341 -15.53606,-84.15382c0.92174,-7.92729 0.51068,-9.88465 -2.75632,-13.15343c-4.46099,-4.45921 -7.28847,-4.79018 -11.93452,-1.39328z"  fill="#000000"/>
                        </g>
                    </g>
                    <g transform="translate(-14.06121,-79.30758) scale(1,1)"  stroke-width="1">
                        <g >
                            <path d="M88.4779,-65.2196c0,0.119 0.29507,3.22947 2.09674,5.46614c8.766,10.88267 15.4778,20.84281 21.37713,31.72348c0.79533,1.46667 1.80546,2.99485 1.83246,3.03552c0.02667,0.041 1.94973,-0.11132 3.64306,-0.42732l3.66989,-0.98723l-1.45021,-3.25455c-1.87433,-3.116 -3.26258,-4.96739 -7.14325,-9.52739c-1.794,-2.10833 -5.01789,-6.03629 -7.13589,-8.69462c-2.118,-2.65833 -5.92133,-6.95123 -8.40666,-9.4899c-4.44333,-4.53933 -8.48327,-8.2688 -8.48327,-7.84413z"  fill="#643d17" fill-rule="evenodd"/>
                            <path d="M-18.3443,-115.53968c-5.475,0.62367 -11.56342,2.9096 -18.05309,6.80793c-1.56767,0.94167 -6.74845,4.25295 -11.42345,7.31028c-9.68533,6.33367 -13.32725,8.46897 -16.93425,9.9043c-3.32933,1.325 -5.38944,1.50352 -7.10311,0.70785l-1.49508,-0.5728l-4.24828,2.10157c-4.456,2.22267 -5.98074,3.2051 -9.91541,6.15277c-9.657,7.23467 -19.80928,20.84758 -24.58161,32.91191c-5.86567,14.82767 -9.68002,32.20377 -10.77902,49.21244c-0.45167,6.99433 -0.44463,24.30037 0.01337,27.5937c0.49333,3.546 1.75067,7.34844 4.50234,13.63744c9.166,20.94933 21.62092,39.01527 32.24225,46.9336c16.42067,12.242 47.7041,23.16653 78.6731,27.43153c7.611,1.048 14.56222,1.57786 23.60389,1.77019c14.834,0.31567 19.19254,-0.28634 29.86687,-4.09134c14.61567,-5.21033 23.46602,-9.24864 28.22869,-12.84397c5.19267,-3.92 11.74807,-11.9384 20.8634,-25.57873c11.55467,-17.29033 22.90257,-37.1224 24.92924,-43.55507c1.893,-6.00767 3.18405,-14.57995 3.87305,-26.06562l0.415,-7.67335l-5.86159,-11.70721c-5.90033,-11.752 -10.59713,-20.06789 -15.36213,-27.22389c-8.88533,-13.34333 -18.25946,-24.61874 -31.39613,-37.77307c-11.948,-11.96433 -14.78065,-14.01654 -29.37132,-21.28521c-17.548,-8.742 -27.42366,-12.28821 -38.36266,-13.77088c-3.56,-0.48233 -18.9794,-0.71537 -22.32407,-0.33437z"   fill="#f8d9ba" fill-rule="evenodd"/>
                            <path d="M-18.43738,-116.00741c-5.475,0.62367 -11.56342,2.9096 -18.05309,6.80793c-1.56767,0.94167 -6.74845,4.25295 -11.42345,7.31028c-9.68533,6.33367 -13.32725,8.46897 -16.93425,9.9043c-3.32933,1.325 -5.38944,1.50352 -7.10311,0.70785l-1.49508,-0.5728l-4.24828,2.10157c-4.456,2.22267 -5.98073,3.20508 -9.9154,6.15275c-9.65633,7.234 -19.74748,20.7316 -24.52781,32.80527c-1.44533,3.65033 -5.0264,14.51281 -5.35507,16.26448c-0.195,1.04033 0.1136,1.90135 2.2036,3.56468c1.215,0.96633 2.88353,2.58251 3.67986,3.55984l2.46623,1.93447l4.92628,-5.27936c6.575,-7.133 11.25626,-11.57549 13.30826,-12.61549c1.32267,-0.67 2.26948,-0.81385 4.87581,-1.04018c4.85367,-0.42167 7.0362,-1.20473 10.49053,-3.75606c1.606,-1.186 3.52779,-2.52178 4.07779,-2.85411c0.55,-0.33267 1.58049,-1.18477 2.40549,-1.96844c1.995,-1.89533 4.33049,-3.17906 5.78349,-2.86406c2.523,0.54667 5.9241,3.65278 7.3781,6.60245c0.69333,1.40633 1.34975,1.63954 2.64308,1.49121c0.73333,-0.08433 3.2443,-0.88647 5.4443,-1.7658c4.98367,-1.992 6.29296,-2.20428 8.78363,-1.09128c2.36833,1.05833 5.10298,3.20451 6.81598,5.24618c0.74433,0.88733 2.43877,3.37259 3.8831,5.66426c1.44467,2.29167 3.59752,4.93502 4.09552,5.43902c1.61333,1.63333 2.5711,1.37164 8.27677,-3.31836c3.49233,-2.87067 5.22649,-3.84901 7.56482,-3.82801c2.488,0.02233 3.49113,0.59815 10.2808,5.25248c3.24567,2.225 5.95745,4.03635 6.04478,4.03635c0.08733,0 1.37205,-0.55905 1.37205,-0.76038c0,-0.201 0.38723,-1.31328 1.13623,-2.84661c2.26767,-4.64167 4.82265,-6.52825 9.94898,-6.85625c5.70167,-0.365 11.39626,1.89666 18.24993,7.11866l3.94578,3.01219l1.82312,-0.46961c7.35833,-3.166 7.57884,-3.24385 10.90084,-3.24818c3.01,-0.004 2.87571,-0.00092 5.22604,1.17308c1.36667,0.68267 3.86504,2.29848 5.69837,3.66815c1.83333,1.36967 4.21854,2.72171 4.73787,2.84138c1.20633,0.278 2.78434,-0.84716 3.56001,-2.87816c1.00467,-2.63 5.36731,-5.37342 8.85231,-5.37342c3.67367,0 11.70513,3.47749 19.4728,8.37049c4.42,2.78433 6.45755,3.65255 8.55655,3.65255c0.823,0 2.62053,-0.96803 2.62053,-1.03703c0,-0.069 -1.03524,-2.09785 -2.13024,-4.05885c-6.984,-12.50867 -12.20613,-20.05128 -23.7618,-34.31995c-0.56133,-0.69333 -0.91731,-0.97653 -0.92531,-0.32653c-0.00667,0.53167 -0.03657,0.52892 -1.1009,-0.66708c-0.734,-0.825 -1.39084,-1.65666 -1.60284,-2.02333c-0.34833,-0.602 -1.16032,0.68421 -0.65232,1.10354c0.30967,0.255 1.35738,-1.02774 1.43405,-1.10441c0.35,-0.35033 -8.89417,-9.75132 -13.8455,-14.08032c-3.025,-2.645 -7.09921,-6.27814 -8.93254,-7.97314c-4.746,-4.38833 -9.15776,-7.15438 -19.97576,-12.55271c-17.82733,-8.89633 -27.641,-12.42818 -38.65567,-13.92085c-3.56,-0.48233 -18.98059,-0.71565 -22.32526,-0.33465z"  fill="#643d17" fill-rule="evenodd"/>
                            <path d="M-84.36382,-103.53946c-7.15009,2.94992 -21.70226,14.66012 -25.44377,20.47405c-3.2683,5.07802 -2.88677,9.42516 1.05492,12.04157c3.91724,2.59919 8.0735,1.16541 13.06521,-4.50945c4.99583,-5.67912 13.33664,-11.80221 19.21222,-14.10435c5.84556,-2.29008 8.45557,-7.51997 6.03813,-12.10119c-2.31465,-4.38793 -6.38097,-4.91427 -13.92671,-1.80063z"   fill="#000000" fill-rule="evenodd"/>
                            <g transform="translate(6.90153,35.66472)"  fill="#000000" fill-rule="evenodd">
                                <g >
                                    <path d="M-38.45093,-24.46786c-1.99472,1.99472 -3.62823,4.85246 -3.62823,6.34895c0,3.51612 6.46106,9.97895 9.97896,9.97895c3.51612,0 9.97717,-6.46283 9.97717,-9.97895c0,-3.51612 -6.46105,-9.97896 -9.97717,-9.97896c-1.49649,0 -4.35423,1.63351 -6.35073,3.63001z" />
                                    <path d="M74.03293,-8.1409c-1.9965,1.9965 -3.62823,4.85423 -3.62823,6.35072c0,3.51612 6.46106,9.97896 9.97718,9.97896c3.5179,0 9.97895,-6.46284 9.97895,-9.97896c0,-3.51612 -6.46105,-9.97895 -9.97895,-9.97895c-1.49649,0 -4.35423,1.63351 -6.34895,3.62823z" />
                                    <path d="M-84.84765,11.56535c-1.38767,5.52339 6.59997,18.43503 13.38041,21.6273c5.96883,2.80974 10.7746,1.15985 11.81188,-4.05714c0.60084,-3.02128 0.21726,-3.95828 -2.34339,-5.72512c-1.6838,-1.16232 -4.89302,-5.17362 -7.13085,-8.91318c-4.22815,-7.06551 -9.18249,-9.94628 -13.0868,-7.60986c-0.94218,0.56382 -2.12642,2.66862 -2.63125,4.678z" />
                                </g>
                            </g>
                            <path d="M-125.39484,-25.07895c-1.533,1.533 -2.787,3.727 -2.787,4.876c0,2.701 4.963,7.663 7.663,7.663c2.701,0 7.663,-4.962 7.663,-7.663c0,-1.149 -1.254,-3.343 -2.786,-4.876c-1.533,-1.533 -3.727,-2.787 -4.877,-2.787c-1.149,0 -3.344,1.254 -4.876,2.787z"   fill="#000000" fill-rule="evenodd"/>
                            <g transform="translate(46.69415,-71.796)"  fill="#000000" fill-rule="evenodd" opacity="0">
                                <g >
                                    <path d="M-76.15185,-17.57932c-13.495,4.817 -18.731,11.036 -15.062,17.892c2.784,5.202 7.729,5.84 15.309,1.973c3.774,-1.926 8.697,-3.502 10.938,-3.502c8.774,0 12.91,-11.247 5.932,-16.134c-4.571,-3.202 -8.633,-3.257 -17.117,-0.229z" />
                                    <path d="M60.52971,-5.63332c-1.88,1.88 -3.418,4.571 -3.418,5.98c0,3.072 5.967,9.369 8.971,9.467c1.174,0.038 4.797,2.345 8.051,5.126c7.208,6.161 12.728,6.469 16.368,0.915c2.447,-3.735 2.457,-4.637 0.099,-9.197c-3.122,-6.038 -17.082,-15.708 -22.676,-15.708c-2.188,0 -5.516,1.538 -7.395,3.417z" />
                                </g>
                            </g>
                            <path d="M86.30061,-63.73213c-0.6567,-0.7709 -1.32011,-1.53955 -1.99034,-2.30609c1.17324,0.86891 1.7777,1.53216 1.99034,2.30609z"  fill="#000000" fill-rule="nonzero"/>
                            <path d="M139.2822,1.16002c0.932,10.829 -3.798,33.056 -9.38,44.071c-6.187,12.209 -22.652,38.368 -31.829,50.569c-11.881,15.796 -18.208,19.98 -45.28,29.949c-18.416,6.781 -38.908,8.215 -60.562,4.236c-36.534,-6.713 -53.062,-11.632 -72.488,-21.575c-23.054,-11.799 -35.904,-26.783 -50.551,-58.942c-6.86,-15.062 -7.746,-18.208 -8.41,-29.855c-1.721,-30.183 8.988,-76.107 21.789,-93.434c8.64,-11.696 16.098,-19.285 18.952,-19.285c3.046,0 8.458,5.249 8.458,8.201c0,1.207 -2.956,5.824 -6.569,10.26c-10.62,13.039 -13.894,19.01 -18.697,34.101c-5.55,17.436 -7.773,32.768 -7.773,53.619c0,15.608 0.109,16.098 6.838,30.977c7.081,15.658 18.235,32.195 26.768,39.687c19.502,17.123 68.482,31.79 106.414,31.866c16.934,0.033 18.252,-0.201 33.604,-5.967c20.499,-7.7 23.86,-9.869 33.052,-21.326c11.086,-13.82 32.202,-48.374 35.516,-58.119c1.574,-4.628 3.199,-14.158 3.612,-21.179l0.751,-12.765l-7.488,-15.018c-0.84725,-1.69909 -1.71117,-3.38037 -2.59251,-5.04485c3.29151,2.08079 4.37229,1.50803 5.56288,-0.39865c1.482,-2.372 2.102,-2.209 6.688,1.76c3.7869,3.27687 5.90484,3.93536 6.74279,2.00325c3.9343,8.87963 6.43544,16.54399 6.87184,21.60925z"  fill="#000000" fill-rule="nonzero"/>
                            <path d="M53.0852,-113.92198c10.393,5.315 15.415,9.39 31.983,25.95c14.143,14.137 22.376,23.856 29.362,34.663c5.3948,8.3456 10.27531,16.94433 14.2582,24.95624c-0.83529,-0.81838 -1.8291,-1.76174 -3.00783,-2.86474c-4.068,-3.805 -7.36,-7.59 -7.36,-8.461c0,-0.881 -5.773,-7.42 -13.091,-14.826c-7.2,-7.287 -14.391,-14.849 -15.98,-16.803c-1.59,-1.954 -3.377,-3.553 -3.973,-3.553c-0.595,0 -1.552,-0.565 -2.126,-1.257c-1.966,-2.369 -15.986,-11.579 -17.666,-11.605c-0.39785,-0.00642 -1.03569,0.28699 -1.56464,0.69546c-7.24714,-6.68023 -11.72319,-9.1534 -24.03573,-15.18996c-21.737,-10.657 -31.801,-13.416 -48.939,-13.416c-15.777,0 -19.245,1.318 -39.827,15.127c-17.508,11.747 -23.406,13.203 -26.445,6.532c-1.254,-2.752 -1.307,-4.597 -0.181,-6.382c4.184,-6.638 41.667,-28.969 51.567,-30.722c21.235,-3.76 47.615,2.115 77.026,17.156z"  fill="#000000" fill-rule="nonzero"/>
                            <path d="M-69.20779,-53.72855c-5.26499,4.43684 -4.0216,12.97689 3.0069,20.64665c5.82762,6.3608 11.70237,7.2053 17.52118,2.52139l4.81429,-3.87526l3.03589,4.47971c5.12579,7.56691 12.33085,13.99764 17.99787,16.06459c4.59732,1.67673 5.85177,1.63346 8.38075,-0.29366c1.63647,-1.24713 3.4842,-3.81769 4.10721,-5.71363c1.52477,-4.64233 2.98774,-4.30582 11.96454,2.75104c13.46559,10.58781 19.41938,9.74086 22.53457,-3.20263l1.49141,-6.19812l5.82878,5.42757c8.24276,7.67556 11.57783,9.28703 16.28482,7.87189c2.15885,-0.64958 4.7752,-2.49528 5.8128,-4.1014c1.80363,-2.79404 2.33039,-2.52171 12.15609,6.3044c6.09858,5.47793 11.69714,9.29492 13.78588,9.39793c5.26823,0.25981 8.85014,-3.96462 9.23978,-10.89502c0.3267,-5.81095 0.47637,-5.98182 3.70509,-4.22838c1.85089,1.00555 7.12441,4.8606 11.71769,8.56794c8.89312,7.1759 12.99045,8.35131 17.08374,4.90113c2.31208,-1.94883 2.89486,-1.855 6.42406,1.03881c11.39702,9.34622 21.20939,-4.2213 14.0056,-19.36603c-3.27208,-6.87766 -7.47802,-8.7644 -12.91924,-5.79527c-2.1674,1.18189 -4.57861,1.7369 -5.35638,1.2319c-0.77777,-0.505 -4.18248,-0.28837 -7.56699,0.48201c-5.73584,1.30632 -6.6542,1.07677 -13.56028,-3.38852c-4.07416,-2.63329 -10.1664,-5.71358 -13.53813,-6.8442c-5.24704,-1.75884 -6.71197,-1.73696 -10.17654,0.15303c-2.22587,1.21406 -4.08413,2.67857 -4.12926,3.25314c-0.04513,0.57457 -0.73827,1.91128 -1.54089,2.97022c-1.18372,1.56186 -2.39573,1.19266 -6.41652,-1.95271c-7.48034,-5.85149 -11.04417,-6.58902 -17.83624,-3.68751l-5.95182,2.5424l-5.68114,-4.42091c-10.60013,-8.24946 -23.20583,-7.9829 -26.93915,0.57007l-1.86669,4.27699l-4.09784,-2.76364c-2.25392,-1.52011 -5.41248,-3.70369 -7.0201,-4.85245c-4.71394,-3.36781 -8.43173,-2.69798 -14.33738,2.57948c-6.18495,5.52905 -5.86148,5.67117 -12.65841,-5.52806c-1.62632,-2.6798 -4.95895,-5.97048 -7.40568,-7.31284c-4.13944,-2.271 -4.90533,-2.24569 -10.99407,0.35505c-4.69853,2.00638 -6.69463,2.29047 -7.07249,1.00508c-0.86475,-2.93264 -5.81694,-7.4638 -8.29272,-7.5859c-1.26775,-0.06252 -3.76197,1.11326 -5.54098,2.61372z"   fill="#000000" fill-rule="evenodd"/>
                            <path d="M78.41037,-72.26699c-1.363,1.362 -1.11,1.762 3.432,5.419c3.669,2.954 6.119,5.209 8.48,7.803c2.089,2.296 2.643,2.504 3.867,1.451c0.902,-0.776 0.94,-0.919 0.518,-1.938c-1.06,-2.557 -13.277,-13.458 -15.083,-13.458c-0.27,0 -0.817,0.325 -1.214,0.723z"  fill="#643d17" fill-rule="evenodd"/>
                            <path d="M55.14797,-106.24601c-7.16913,5.20049 -4.83379,8.90329 18.16067,28.79617c11.90189,10.29524 24.34472,22.23531 27.65144,26.53108c3.30672,4.29686 8.60253,10.73125 11.76928,14.2978c3.16675,3.56655 7.34172,10.49798 9.27818,15.40199c5.18846,13.14782 9.77284,15.92847 15.86112,9.6227c3.46459,-3.58835 3.17727,-9.42104 -0.87457,-17.72918c-1.08716,-2.22909 -2.79735,-5.88829 -3.80136,-8.13156c-5.35053,-11.96297 -39.80591,-47.59681 -63.07821,-65.23335c-9.03297,-6.84641 -10.0854,-7.09604 -14.96655,-3.55565z"  fill="#000000" fill-rule="evenodd"/>
                            <path d="M-69.93153,-52.58277c-2.763,1.662 -6.222,4.082 -7.686,5.378c-1.49,1.319 -5.246,2.395 -8.536,2.447c-5.526,0.087 -6.625,0.895 -18.532,13.636c-15.837,16.946 -17.586,22.103 -8.844,26.087c3.699,1.685 4.221,1.353 13.318,-8.474c7.714,-8.333 9.999,-10.026 12.338,-9.141c4.042,1.529 6.184,0.489 14.42,-7.001c3.983,-3.623 9.635,-8.631 12.559,-11.129c6.022,-5.146 6.572,-7.837 2.445,-11.964c-3.614,-3.614 -5.243,-3.592 -11.482,0.161z"   fill="#000000" fill-rule="evenodd"/>
                            <path d="M-127.82403,-33.11732c-3.865,3.864 -3.512,6.146 1.883,12.187c2.568,2.876 5.093,6.974 5.611,9.107c1.19,4.9 6.3,7.489 10.425,5.281c7.249,-3.88 4.032,-17.938 -5.751,-25.132c-6.766,-4.976 -8.437,-5.174 -12.168,-1.443z"   fill="#000000" fill-rule="evenodd"/>
                        </g>
                    </g>
                    <path d="M-101.10596,115.51865c-3.42181,3.42359 -3.62822,6.04823 -3.62822,46.26298c0,40.21653 0.20641,42.84117 3.62822,46.26476c4.59089,4.59089 8.10879,4.59089 12.69968,0c3.42359,-3.42359 3.62822,-6.04823 3.62822,-46.26476c0,-40.21475 -0.20463,-42.83939 -3.62822,-46.26298c-4.59089,-4.59089 -8.10879,-4.59089 -12.69968,0z"  fill="#000000" fill-rule="evenodd" stroke-width="1"/>
                    <path d="M-33.17862,112.64744c-3.26878,2.38619 -3.5873,5.67989 -4.42896,45.80923c-0.74202,35.42991 -0.44663,43.81273 1.6424,46.41423c3.7083,4.61936 10.22273,3.90048 14.55382,-1.60503c3.54993,-4.51259 3.76168,-7.0536 3.76168,-45.35726c0,-38.15597 -0.21708,-40.79127 -3.63,-44.20419c-4.29195,-4.29195 -7.12299,-4.54463 -11.89894,-1.05698z"  fill="#000000" fill-rule="evenodd" stroke-width="1"/>
                    <path d="M-8.79643,48.61038c-3.5962,3.59442 -3.76702,5.0482 -2.6282,22.22488c1.72781,26.04706 4.50548,34.1167 17.40979,50.57984c12.26906,15.6535 17.39021,17.77278 22.84411,9.45046c3.72075,-5.67989 2.47516,-8.89351 -9.35082,-24.12173l-8.42018,-10.84375l-2.23673,-23.08789c-1.8239,-18.81196 -2.86663,-23.54699 -5.63006,-25.5684c-4.69587,-3.43427 -7.50913,-3.11219 -11.98791,1.36659z"  fill="#000000" fill-rule="evenodd" stroke-width="1"/>
                    <g transform="translate(34.38773,139.44424)"  fill-rule="evenodd">
                        <g >
                            <path d="M32.11462,21.02516c0.33733,0.528 1.51773,2.18531 2.66273,3.74364c5.33133,7.25533 18.16642,29.24823 19.30975,33.08923c0.131,0.44033 1.49869,0.94012 4.85836,1.13879c2.261,0.134 5.49679,0.45558 7.14679,0.71058c6.773,1.04633 15.3616,1.77843 31.1716,2.65776l4.75255,-0.65501l-4.24863,-3.34293c-2.142,-1.47033 -6.68674,-4.78768 -10.05807,-7.34368c-11.73533,-8.89733 -26.03111,-17.86554 -40.94544,-25.68654c-4.372,-2.29267 -11.75489,-5.75112 -13.39822,-6.27245l-1.98454,0.28317z"  fill="#1ba1dd" stroke-width="1"/>
                            <path d="M-74.88217,-54.94989c-4.58867,1.235 -16.15644,8.22941 -24.02044,14.54841c-2.24433,1.80367 -4.56879,3.84672 -4.78846,4.11139c-0.329,0.39633 0.15466,1.7608 1.86499,3.13447c1.143,0.91767 4.87757,4.15963 8.27357,7.18096l6.37853,5.62573l5.55066,-0.17081c2.83733,-0.13667 6.14702,-0.25934 7.36569,-0.27267l2.73064,-0.21866l4.01701,-5.11951c6.24433,-7.97233 7.40249,-9.21497 11.66516,-9.19097c5.27367,0.02967 9.5289,2.51362 33.3099,19.13329c13.78167,9.63133 31.38606,21.42508 31.62439,21.18708c0.30133,-0.30167 -4.35864,-6.47321 -9.71731,-10.46854c-8.682,-6.47233 -23.32732,-18.31748 -29.52032,-23.87581c-8.97533,-8.05567 -25.8752,-20.44917 -31.88553,-23.38817c-4,-1.95633 -10.04715,-2.96986 -12.84848,-2.21619z"  fill="#f0f0f0" stroke-width="1"/>
                            <path d="M23.77168,7.20258c-4.415,4.414 -2.194,8.461 6.136,11.184c12.724,4.159 42.38,21.212 57.215,32.9c12.603,9.929 25.04,17.147 27.954,16.222c2.841,-0.902 4.639,-4.689 3.782,-7.967c-0.315,-1.205 -5.309,-5.328 -11.097,-9.161c-5.789,-3.833 -12.697,-8.729 -15.351,-10.881c-15.381,-12.462 -56.818,-34.639 -64.725,-34.639c-0.865,0 -2.626,1.054 -3.914,2.342z"  fill="#000000" stroke-width="2"/>
                            <path d="M20.2591,14.22774c-1.288,1.288 -2.33,3 -2.315,3.805c0.032,1.701 4.481,9.491 10.976,19.217c2.509,3.758 6.128,9.732 8.04,13.274c6.858,12.702 10.04,15.487 14.788,12.946c4.25,-2.275 4.04,-5.372 -0.937,-13.78c-11.198,-18.918 -13.722,-22.979 -16.209,-26.078c-1.449,-1.805 -2.635,-3.788 -2.635,-4.406c0,-1.875 -5.619,-7.32 -7.554,-7.32c-0.997,0 -2.866,1.054 -4.154,2.342z"  fill="#000000" stroke-width="2"/>
                            <path d="M-116.73148,-38.46095c-4.378,4.378 -3.629,5.604 11.123,18.221c12.631,10.803 15.674,12.229 26.014,12.195c10.5,-0.034 16.491,-2.783 21.303,-9.776l3.685,-5.357l7.457,4.945c8.346,5.536 41.969,28.213 52.773,35.593c3.863,2.64 8.675,5.15 10.693,5.58c3.234,0.688 4.088,0.271 7.22,-3.529c4.87,-5.908 5.244,-8.197 1.954,-11.964c-2.759,-3.158 -2.787,-3.163 -6.483,-1.097c-3.553,1.986 -3.855,1.986 -7.047,0c-7.482,-4.657 -25.303,-16.703 -38.243,-25.852c-28.12,-19.881 -31.143,-20.56 -40.106,-9.007l-5.451,7.025l-7.518,0.33l-7.517,0.329l-8.782,-7.8c-9.269,-8.233 -14.848,-12.166 -17.27,-12.174c-0.805,-0.002 -2.517,1.05 -3.805,2.338z"  fill="#000000" stroke-width="2"/>
                            <path d="M-83.24948,-64.76272c-3.158,1.566 -6.583,3.519 -7.611,4.34c-1.028,0.82 -3.959,2.541 -6.513,3.823c-5.913,2.968 -21.7,18.088 -21.7,20.782c0,2.49 4.04,6.723 6.416,6.723c0.954,0 5.175,-3.119 9.381,-6.931c10.254,-9.292 25.81,-18.828 30.716,-18.828c2.083,0 6.037,0.864 8.786,1.919c5.183,1.989 24.91,16.229 33.101,23.894c5.194,4.861 27.614,22.867 32.199,25.861c1.609,1.051 6.615,5.394 11.123,9.651c8.704,8.219 11.718,9.285 15.244,5.389c2.006,-2.216 2.022,-2.62 0.258,-6.319c-2.386,-5.004 -5.258,-7.454 -64.395,-54.922c-7.884,-6.328 -15.651,-12.058 -17.261,-12.733c-15.508,-6.5 -20.993,-6.988 -29.744,-2.649z"  fill="#000000" stroke-width="2"/>
                            <path d="M-75.35502,-24.89163c-2.363,0.898 -7.557,0.989 -9.012,0.157c-1.35,-0.772 -2.45,-0.703 -3.27,0.203c-1.118,1.235 -0.384,2.666 1.931,3.765c1.719,0.816 2.295,0.888 5.936,0.736c6.693,-0.279 10.414,-2.54 8.058,-4.896c-0.913,-0.913 -1.156,-0.911 -3.643,0.035z"  fill="#ffffff" stroke-width="1"/>
                            <path d="M-80.90314,-44.37401c-3.247,1.807 -6.816,4.506 -7.93,5.998l-2.026,2.714l2.466,4.669c3.294,6.235 5.637,6.448 13.689,1.244c8.43,-5.449 10.403,-10.802 5.71,-15.495c-3.189,-3.188 -4.83,-3.068 -11.909,0.87z"  fill="#000000" stroke-width="1"/>
                        </g>
                    </g>
                    <path d="M-119.43705,23.18067c-5.17631,5.17631 -3.72075,11.37758 6.53223,27.82826c4.4948,7.21018 8.17106,14.08761 8.17106,15.28516c0,4.19764 9.04655,19.97392 13.0698,22.79251c2.23672,1.56588 5.86316,2.84706 8.06074,2.84706c2.1958,0 10.11063,2.44848 17.58773,5.44323c15.03605,6.02154 21.43303,6.75466 24.68936,2.83105c3.50189,-4.22077 1.56589,-12.41141 -3.53747,-14.96487c-7.98957,-3.99834 -16.97561,-7.68173 -27.10225,-11.10532c-5.42543,-1.83635 -10.47897,-4.50192 -11.22988,-5.92367c-0.74913,-1.42353 -3.44851,-7.07673 -5.99841,-12.56444c-7.74579,-16.67845 -16.98094,-33.11846 -19.50415,-34.71637c-3.82396,-2.42534 -6.65856,-1.83102 -10.73876,2.2474z"  fill="#000000" fill-rule="evenodd" stroke-width="1"/>
                    <path d="M20.65878,135.94275c-7.883,5.522 -2.089,15.47 9.01,15.47c5.678,0 11.922,-4.719 11.922,-9.01c0,-7.587 -13.413,-11.726 -20.932,-6.46z"  fill="#000000" fill-rule="evenodd" stroke-width="1"/>
                </g>
            </g>
        </g>
    </g>
</svg>